<?xml version="1.0" encoding="utf-8"?>
<!-- Generator: Adobe Illustrator 24.2.3, SVG Export Plug-In . SVG Version: 6.00 Build 0)  -->
<svg version="1.1" id="Ebene_1" xmlns="http://www.w3.org/2000/svg" xmlns:xlink="http://www.w3.org/1999/xlink" x="0px" y="0px"
	 viewBox="0 0 256 256" style="enable-background:new 0 0 256 256;" xml:space="preserve">
<style type="text/css">
	.st0{fill:#9E3864;}
	.st1{fill:#FFFFFF;}
	.st2{fill:url(#SVGID_1_);}
</style>
<g>
	<rect class="st0" width="256" height="256"/>
</g>
<path class="st1" d="M133.6,45.3l-5.4-2L45.5,73.6c-2.3,0.8-3.7,2.8-3.7,5.4l1.7,46.9c1.1,38.7,20.7,67.6,51.3,86.3
	c2.8,1.7,6.5,0.6,7.9-2.5l17.8-41.9c0.6-1.4-0.3-3.1-1.7-3.7c-13-4-22.7-16.1-22.7-30.5c0-17.5,14.2-31.7,31.7-31.7
	c1.4,0,2.8,0,4.2,0.3L133.6,45.3z"/>
<linearGradient id="SVGID_1_" gradientUnits="userSpaceOnUse" x1="171.6927" y1="99.9887" x2="186.5868" y2="199.5587" gradientTransform="matrix(1 0 0 1 0 2)">
	<stop  offset="0" style="stop-color:#FFFFFF"/>
	<stop  offset="1" style="stop-color:#FFFFFF;stop-opacity:0.4"/>
</linearGradient>
<path class="st2" d="M128.2,101.6c17.6,0,31.7,14.1,31.7,31.7c0,14.4-9.6,26.6-22.7,30.5c-1.4,0.6-2.3,2.3-1.7,3.7l17.8,41.9
	c1.4,3.1,5.1,4.2,7.9,2.5c30.6-18.7,50.1-47.5,51.3-86.3l1.7-46.9c0-2.3-1.4-4.5-3.7-5.4l-82.6-30.2v58.5H128.2z"/>
</svg>
